<?xml version="1.0" encoding="UTF-8"?><svg id="Ebene_2" xmlns="http://www.w3.org/2000/svg" viewBox="0 0 144 144"><defs><style>.cls-1{fill:none;stroke:#000;stroke-miterlimit:10;stroke-width:6px;}</style></defs><g id="Ebene_1-2"><path d="m125.92,0H18.08C8.1,0,0,8.1,0,18.08v107.84c0,9.98,8.1,18.08,18.08,18.08h107.84c9.98,0,18.08-8.1,18.08-18.08V18.08c0-9.98-8.1-18.08-18.08-18.08Zm-53.92,126c-29.82,0-54-24.18-54-54s24.18-54,54-54,54,24.18,54,54-24.18,54-54,54Z"/><line class="cls-1" x1="93" y1="33" x2="93" y2="69"/><line class="cls-1" x1="75" y1="51" x2="111" y2="51"/><circle cx="72" cy="72" r="9"/></g></svg>