<?xml version="1.0" encoding="UTF-8"?><svg id="Ebene_2" xmlns="http://www.w3.org/2000/svg" viewBox="0 0 87.8 70.24"><defs><style>.cls-1{stroke-width:0px;}</style></defs><g id="Ebene_1-2"><path class="cls-1" d="m71.81,8c2.94,0,5.64,1.9,7.04,4.95,1.71,3.71,1.11,8.18-1.47,11.13l-33.38,38.05s-.07.07-.1.09c-.02-.02-.06-.05-.1-.09L10.43,24.07c-2.59-2.95-3.18-7.42-1.47-11.13,1.41-3.05,4.1-4.95,7.04-4.95h9.89c2.56,0,4.99,1.47,6.49,3.92l4.7,7.65c1.46,2.37,4.04,3.81,6.82,3.81s5.36-1.44,6.82-3.81l4.7-7.65c1.51-2.46,3.94-3.92,6.49-3.92h9.89m0-8h-9.89c-5.35,0-10.34,2.9-13.31,7.74l-4.7,7.65-4.7-7.65c-2.97-4.83-7.96-7.74-13.31-7.74h-9.89C9.94,0,4.4,3.72,1.69,9.6c-3.02,6.55-1.93,14.45,2.72,19.75l33.38,38.05c1.66,1.9,3.89,2.84,6.11,2.84s4.45-.95,6.11-2.84l33.38-38.05c4.65-5.3,5.74-13.2,2.72-19.75-2.71-5.88-8.25-9.6-14.31-9.6h0Z"/></g></svg>