<?xml version="1.0" encoding="UTF-8"?><svg id="Ebene_2" xmlns="http://www.w3.org/2000/svg" viewBox="0 0 79.55 64.64"><defs><style>.cls-1,.cls-2{stroke-width:0px;}.cls-2{fill:#fff;}</style></defs><g id="Ebene_1-2"><path class="cls-1" d="m27.99,30.24l-3.1,11.04c-.11.4-.07.83.13,1.19l9.71,18.27c.42.79.12,1.76-.67,2.18l-2.87,1.53c-.79.42-1.76.12-2.18-.67l-7.81-14.69c-.53-.99-1.88-1.15-2.63-.32l-4.82,5.4c-.38.42-.95.62-1.5.51l-10.93-2.09c-.88-.17-1.45-1.01-1.28-1.89l.61-3.19c.17-.87,1.01-1.45,1.89-1.28l7.31,1.4c.56.11,1.13-.09,1.51-.51l7.51-8.4h0s2.26-8,2.26-8l-8.64,4.57c-.79.42-1.76.12-2.18-.67l-1.52-2.87c-.42-.79-.12-1.76.67-2.18l13.47-7.12c.39-.21.68-.56.8-.99l.28-.98c.24-.86,1.13-1.36,1.99-1.11l3.13.88c.86.24,1.36,1.13,1.11,1.99l-.07.26c-.24.84.24,1.72,1.08,1.98l11.55,3.54c.85.26,1.33,1.16,1.07,2.01l-.95,3.11c-.26.85-1.16,1.33-2.01,1.07l-12.92-3.96Z"/><polygon class="cls-1" points="48.15 0 48.15 63.73 79.55 58.68 79.55 5.05 48.15 0"/><circle class="cls-1" cx="30.46" cy="10.86" r="6.94"/><circle class="cls-2" cx="71.05" cy="31.86" r="2.32"/></g></svg>