<?xml version="1.0" encoding="UTF-8"?><svg id="Ebene_2" xmlns="http://www.w3.org/2000/svg" viewBox="0 0 113.14 139.05"><defs><style>.cls-1{stroke-width:0px;}</style></defs><g id="Ebene_1-2"><rect class="cls-1" x="92.87" y="79.83" width="8.4" height="40.67" rx="3.09" ry="3.09" transform="translate(-42.4 97.97) rotate(-45)"/><rect class="cls-1" x="76.74" y="118.78" width="40.67" height="8.4" rx="3.09" ry="3.09" transform="translate(-58.53 104.66) rotate(-45)"/><path class="cls-1" d="m6.19,120.09h.07C2.8,120.09,0,117.29,0,113.83v-33.3C0,77.07,2.8,74.26,6.26,74.26h-.07c3.46,0,6.26,2.8,6.26,6.26v33.3c0,3.46-2.8,6.26-6.26,6.26Z"/><path class="cls-1" d="m0,113.83v-4.51c0-3.46,4.89-6.26,10.93-6.26h86.14c6.04,0,10.93,2.8,10.93,6.26v4.51c0,3.46-4.89,6.26-10.93,6.26H10.93C4.89,120.09,0,117.29,0,113.83Z"/><rect class="cls-1" x="11.87" y="18.55" width="8.4" height="40.67" rx="3.09" ry="3.09" transform="translate(-22.79 22.75) rotate(-45)"/><rect class="cls-1" x="-4.26" y="11.87" width="40.67" height="8.4" rx="3.09" ry="3.09" transform="translate(-6.66 16.07) rotate(-45)"/><path class="cls-1" d="m106.94,18.96h-.07c3.46,0,6.26,2.8,6.26,6.26v33.3c0,3.46-2.8,6.26-6.26,6.26h.07c-3.46,0-6.26-2.8-6.26-6.26V25.22c0-3.46,2.8-6.26,6.26-6.26Z"/><path class="cls-1" d="m113.14,25.22v4.51c0,3.46-4.89,6.26-10.93,6.26H16.07c-6.04,0-10.93-2.8-10.93-6.26v-4.51c0-3.46,4.89-6.26,10.93-6.26h86.14c6.04,0,10.93,2.8,10.93,6.26Z"/></g></svg>