<?xml version="1.0" encoding="UTF-8"?><svg id="Ebene_2" xmlns="http://www.w3.org/2000/svg" viewBox="0 0 176.84 149.44"><defs><style>.cls-1{fill:none;stroke:#000;stroke-linecap:square;stroke-miterlimit:10;stroke-width:13px;}</style></defs><g id="Ebene_1-2"><g><path d="m8.28,38.72h63.72L101.7,1.6c2.09-2.61,6.3-1.13,6.3,2.21v141.83c0,3.34-4.21,4.82-6.3,2.21l-29.7-37.12H8.28c-4.58,0-8.28-3.71-8.28-8.28v-55.43c0-4.58,3.71-8.28,8.28-8.28Z"/><path d="m123,32.87c0-1.33,1.24-2.29,2.54-1.97,6.04,1.47,20.79,8.67,20.79,43.82s-14.75,42.35-20.79,43.82c-1.29.31-2.54-.65-2.54-1.97V32.87Z"/><path class="cls-1" d="m129.91,6.5c11.37,0,40.43,11.09,40.43,68.22s-29.06,68.22-40.43,68.22"/></g></g></svg>