<?xml version="1.0" encoding="UTF-8"?><svg id="Ebene_2" xmlns="http://www.w3.org/2000/svg" viewBox="0 0 177.55 144"><defs><style>.cls-1{fill:none;stroke:#000;stroke-miterlimit:10;stroke-width:8px;}</style></defs><g id="Ebene_1-2"><path d="m31.9,6.61L.26,133.15c-1.38,5.51,2.79,10.85,8.47,10.85h0c4.01,0,7.5-2.73,8.47-6.61L48.84,10.85c1.38-5.51-2.79-10.85-8.47-10.85h0c-4.01,0-7.5,2.73-8.47,6.61Z"/><path d="m67.9,6.61l-31.63,126.54c-1.38,5.51,2.79,10.85,8.47,10.85h0c4.01,0,7.5-2.73,8.47-6.61L84.84,10.85c1.38-5.51-2.79-10.85-8.47-10.85h0c-4.01,0-7.5,2.73-8.47,6.61Z"/><path d="m103.9,6.61l-31.63,126.54c-1.38,5.51,2.79,10.85,8.47,10.85h0c4.01,0,7.5-2.73,8.47-6.61L120.84,10.85c1.38-5.51-2.79-10.85-8.47-10.85h0c-4.01,0-7.5,2.73-8.47,6.61Z"/><line class="cls-1" x1="123.55" y1="72" x2="177.55" y2="72"/></g></svg>