<?xml version="1.0" encoding="UTF-8"?><svg id="Ebene_2" xmlns="http://www.w3.org/2000/svg" viewBox="0 0 142.98 97.61"><g id="Ebene_1-2"><g id="Layer_2"><g id="Layer_1-2"><rect x="70.98" y="34.35" width="72" height="14.87" rx="5.47" ry="5.47"/><rect y="17.75" width="62.02" height="12.81" rx="4.71" ry="4.71"/><g><rect x="54.36" y="45.93" width="7.33" height="35.49" rx="2.69" ry="2.69" transform="translate(-28.03 59.68) rotate(-45)"/><rect x="40.27" y="79.93" width="35.49" height="7.33" rx="2.69" ry="2.69" transform="translate(-42.11 65.51) rotate(-45)"/><path d="m14.61,81.07h.06c-3.02,0-5.47-2.45-5.47-5.47v-29.07c0-3.02,2.45-5.47,5.47-5.47h-.06c3.02,0,5.47,2.45,5.47,5.47v29.07c0,3.02-2.45,5.47-5.47,5.47Z"/><rect x="9.2" y="66.2" width="54" height="14.87" rx="5.47" ry="5.47"/></g><rect x="70.98" width="72" height="14.87" rx="5.47" ry="5.47"/></g></g></g></svg>