<?xml version="1.0" encoding="UTF-8"?><svg id="Ebene_2" xmlns="http://www.w3.org/2000/svg" viewBox="0 0 113.5 93.89"><defs><style>.cls-1{stroke-width:0px;}.cls-2{fill:none;stroke:#000;stroke-miterlimit:10;stroke-width:5px;}</style></defs><g id="Ebene_1-2"><g id="Ebene_2-2"><g id="Layer_1"><path class="cls-1" d="m3.79,66.44h26c2.09,0,3.78-1.7,3.78-3.78,0-.75-.22-1.48-.64-2.1l-13-19.46c-1.16-1.74-3.51-2.21-5.24-1.05-.42.28-.77.63-1.05,1.05L.64,60.56c-1.16,1.74-.69,4.08,1.04,5.24.62.42,1.36.64,2.11.64Z"/><path class="cls-1" d="m109.66,27.44h-25.95c-2.09,0-3.78,1.7-3.78,3.78,0,.75.22,1.48.64,2.1l13,19.46c1.16,1.74,3.51,2.21,5.24,1.05.42-.28.77-.63,1.05-1.05l13-19.46c1.16-1.74.69-4.08-1.04-5.24-.64-.43-1.39-.65-2.16-.64Z"/><path class="cls-2" d="m95.75,67.94c-11.59,21.63-38.52,29.76-60.15,18.17-8.88-4.76-15.88-12.4-19.85-21.67"/><path class="cls-2" d="m17.45,25.95C29.04,4.32,55.97-3.81,77.6,7.78c8.88,4.76,15.88,12.4,19.85,21.66"/></g></g></g></svg>