<?xml version="1.0" encoding="UTF-8" standalone="no"?>
<!DOCTYPE svg PUBLIC "-//W3C//DTD SVG 1.1//EN" "http://www.w3.org/Graphics/SVG/1.1/DTD/svg11.dtd">
<svg width="100%" height="100%" viewBox="0 0 42 42" version="1.1" xmlns="http://www.w3.org/2000/svg" xmlns:xlink="http://www.w3.org/1999/xlink" xml:space="preserve" xmlns:serif="http://www.serif.com/" style="fill-rule:evenodd;clip-rule:evenodd;stroke-linecap:round;stroke-linejoin:round;stroke-miterlimit:1.5;">
    <g transform="matrix(1,0,0,1,-85,-61)">
        <g id="Repost">
            <g transform="matrix(-1,-1.22465e-16,1.22465e-16,-1,219,144)">
                <path d="M104,64L96,72L104,80" style="fill:none;stroke:black;stroke-width:4.26px;"/>
            </g>
            <g transform="matrix(1,2.44929e-16,-2.44929e-16,1,-6.98606,20.0306)">
                <path d="M104,64L96,72L104,80" style="fill:none;stroke:black;stroke-width:4.26px;"/>
            </g>
            <g transform="matrix(-1,-1.22465e-16,1.22465e-16,-1,219,144)">
                <path d="M96,72L123,72" style="fill:none;stroke:black;stroke-width:4.26px;"/>
            </g>
            <g transform="matrix(1,2.44929e-16,-2.44929e-16,1,-6.98606,20.0306)">
                <path d="M96,72L123,72" style="fill:none;stroke:black;stroke-width:4.26px;"/>
            </g>
            <path d="M96,72C95.417,72 85.661,72.072 88.015,83.943" style="fill:none;stroke:black;stroke-width:4.26px;"/>
            <g transform="matrix(-1,-1.22465e-16,1.22465e-16,-1,212.014,164.031)">
                <path d="M96,72C95.417,72 85.661,72.072 88.015,83.943" style="fill:none;stroke:black;stroke-width:4.26px;"/>
            </g>
        </g>
    </g>
</svg>
