<?xml version="1.0" encoding="UTF-8"?><svg id="Ebene_2" xmlns="http://www.w3.org/2000/svg" viewBox="0 0 144.38 144.38"><defs><style>.cls-1{stroke-width:0px;}</style></defs><g id="Ebene_1-2"><g id="_Radiale_Wiederholung_"><rect class="cls-1" x="71.95" y="109.12" width="10.17" height="34.78" transform="translate(168.69 242.86) rotate(173.11)"/></g><g id="_Radiale_Wiederholung_-2"><rect class="cls-1" x="46.16" y="105.15" width="10.17" height="34.78" transform="translate(55.62 255.29) rotate(-159.19)"/></g><g id="_Radiale_Wiederholung_-3"><rect class="cls-1" x="25.16" y="89.65" width="10.17" height="34.78" transform="translate(-29.88 200.61) rotate(-131.5)"/></g><g id="_Radiale_Wiederholung_-4"><rect class="cls-1" x="13.77" y="66.16" width="10.17" height="34.78" transform="translate(-57.78 121.8) rotate(-103.81)"/></g><g id="_Radiale_Wiederholung_-5"><rect class="cls-1" x="14.6" y="40.08" width="10.17" height="34.78" transform="translate(-40.83 62.78) rotate(-76.12)"/></g><g id="_Radiale_Wiederholung_-6"><rect class="cls-1" x="27.45" y="17.36" width="10.17" height="34.78" transform="translate(-15.05 36.03) rotate(-48.42)"/></g><g id="_Radiale_Wiederholung_-7"><rect class="cls-1" x="49.39" y="3.22" width="10.17" height="34.78" transform="translate(-3.77 20.62) rotate(-20.73)"/></g><g id="_Radiale_Wiederholung_-8"><rect class="cls-1" x="75.39" y=".9" width="10.17" height="34.78" transform="translate(2.81 -9.62) rotate(6.96)"/></g><g id="_Radiale_Wiederholung_-9"><rect class="cls-1" x="99.49" y="10.93" width="10.17" height="34.78" transform="translate(34.65 -54.44) rotate(34.65)"/></g><g id="_Radiale_Wiederholung_-10"><rect class="cls-1" x="116.17" y="31" width="10.17" height="34.78" transform="translate(107.84 -81.47) rotate(62.34)"/></g><g id="_Radiale_Wiederholung_-11"><rect class="cls-1" x="121.61" y="56.53" width="10.17" height="34.78" transform="translate(200.7 -52.72) rotate(90.04)"/></g><g id="_Radiale_Wiederholung_-12"><rect class="cls-1" x="114.56" y="81.66" width="10.17" height="34.78" transform="translate(262.99 39.24) rotate(117.73)"/></g><g id="_Radiale_Wiederholung_-13"><rect class="cls-1" x="96.64" y="100.64" width="10.17" height="34.78" transform="translate(252.47 157.48) rotate(145.42)"/></g></g></svg>