<?xml version="1.0" encoding="UTF-8"?><svg id="Ebene_2" xmlns="http://www.w3.org/2000/svg" viewBox="0 0 65.91 93.76"><defs><style>.cls-1{stroke-width:0px;}.cls-2{fill:none;stroke:#000;stroke-miterlimit:10;stroke-width:12px;}</style></defs><g id="Ebene_1-2"><path class="cls-1" d="m48.24,69.7l-1.27-1.28c-.97-.98-2.55-.98-3.52,0l-19.66,19.79c-.97.98-.97,2.56,0,3.54l1.27,1.28c.97.98,2.55.98,3.52,0l19.66-19.79c.97-.98.97-2.56,0-3.54Z"/><path class="cls-1" d="m25.06,49.91l-1.27,1.28c-.97.98-.97,2.56,0,3.54l19.66,19.79c.97.98,2.55.98,3.52,0l1.27-1.28c.97-.98.97-2.56,0-3.54l-19.66-19.79c-.97-.98-2.55-.98-3.52,0Z"/><path class="cls-1" d="m17.04,24.06l1.27,1.28c.97.98,2.55.98,3.52,0L41.48,5.55c.97-.98.97-2.56,0-3.54l-1.27-1.28c-.97-.98-2.55-.98-3.52,0l-19.66,19.79c-.97.98-.97,2.56,0,3.54Z"/><path class="cls-1" d="m40.22,43.85l1.27-1.28c.97-.98.97-2.56,0-3.54l-19.66-19.79c-.97-.98-2.55-.98-3.52,0l-1.27,1.28c-.97.98-.97,2.56,0,3.54l19.66,19.79c.97.98,2.55.98,3.52,0Z"/><path class="cls-1" d="m48.24,69.7l-1.27-1.28c-.97-.98-2.55-.98-3.52,0l-19.66,19.79c-.97.98-.97,2.56,0,3.54l1.27,1.28c.97.98,2.55.98,3.52,0l19.66-19.79c.97-.98.97-2.56,0-3.54Z"/><path class="cls-1" d="m25.06,49.91l-1.27,1.28c-.97.98-.97,2.56,0,3.54l19.66,19.79c.97.98,2.55.98,3.52,0l1.27-1.28c.97-.98.97-2.56,0-3.54l-19.66-19.79c-.97-.98-2.55-.98-3.52,0Z"/><path class="cls-1" d="m17.04,24.06l1.27,1.28c.97.98,2.55.98,3.52,0L41.48,5.55c.97-.98.97-2.56,0-3.54l-1.27-1.28c-.97-.98-2.55-.98-3.52,0l-19.66,19.79c-.97.98-.97,2.56,0,3.54Z"/><path class="cls-1" d="m40.22,43.85l1.27-1.28c.97-.98.97-2.56,0-3.54l-19.66-19.79c-.97-.98-2.55-.98-3.52,0l-1.27,1.28c-.97.98-.97,2.56,0,3.54l19.66,19.79c.97.98,2.55.98,3.52,0Z"/><ellipse class="cls-2" cx="32.95" cy="46.44" rx="26.95" ry="27.13"/></g></svg>