<?xml version="1.0" encoding="UTF-8"?><svg id="Ebene_2" xmlns="http://www.w3.org/2000/svg" viewBox="0 0 117.7 117.73"><defs><style>.cls-1{fill:#ff8e3c;}</style></defs><g id="Ebene_1-2"><path class="cls-1" d="m116.63,103.04L67.96,5.54c-2.55-4.99-8.66-6.98-13.65-4.44-1.92.97-3.47,2.53-4.45,4.44L1.08,103.04c-2.51,5.01-.48,11.11,4.53,13.62,1.42.7,2.97,1.07,4.55,1.07h97.42c5.61-.02,10.14-4.58,10.12-10.18,0-1.57-.37-3.11-1.07-4.51Zm-57.78,2.99l-7.13-7.14,7.13-7.13,7.14,7.13-7.14,7.14Zm7.14-35.67l-7.14,14.26-7.13-14.26v-35.67h14.27v35.67Z"/></g></svg>