<?xml version="1.0" encoding="UTF-8"?><svg id="Ebene_2" xmlns="http://www.w3.org/2000/svg" viewBox="0 0 144 144"><defs><style>.cls-1,.cls-2{stroke-width:0px;}.cls-2{fill:#fff;}</style></defs><g id="Ebene_1-2"><path class="cls-1" d="m144,72c0,19.88-8.06,37.88-21.09,50.91-3.01,3.01-6.29,5.76-9.8,8.2-11.66,8.12-25.83,12.89-41.11,12.89s-29.45-4.77-41.11-12.89C12.21,118.1,0,96.48,0,72c0-19.88,8.06-37.88,21.09-50.91C34.12,8.06,52.12,0,72,0s37.88,8.06,50.91,21.09c13.03,13.03,21.09,31.03,21.09,50.91Z"/><path class="cls-2" d="m113.11,131.11c-11.66,8.12-25.83,12.89-41.11,12.89s-29.45-4.77-41.11-12.89c.33-7.65,3.57-14.54,8.63-19.6,5.35-5.35,12.74-8.66,20.91-8.66h23.14c15.89,0,28.86,12.54,29.54,28.26Z"/><circle class="cls-2" cx="72" cy="64.29" r="28.29"/></g></svg>