<?xml version="1.0" encoding="UTF-8"?><svg id="Ebene_2" xmlns="http://www.w3.org/2000/svg" viewBox="0 0 432.5 144.25"><defs><style>.cls-1,.cls-2{stroke-width:0px;}.cls-2{fill:#fff;}.cls-3{fill:none;stroke:#fff;stroke-miterlimit:10;stroke-width:.5px;}</style></defs><g id="Ebene_1-2"><rect class="cls-1" x=".25" width="432" height="144"/><rect class="cls-2" x="9.25" width="9" height="9"/><rect class="cls-2" x=".25" y="9" width="9" height="9"/><rect class="cls-2" x="27.25" width="9" height="9"/><rect class="cls-2" x="18.25" y="9" width="9" height="9"/><rect class="cls-2" x="45.25" width="9" height="9"/><rect class="cls-2" x="36.25" y="9" width="9" height="9"/><rect class="cls-2" x="63.25" width="9" height="9"/><rect class="cls-2" x="54.25" y="9" width="9" height="9"/><rect class="cls-2" x="81.25" width="9" height="9"/><rect class="cls-2" x="72.25" y="9" width="9" height="9"/><rect class="cls-2" x="99.25" width="9" height="9"/><rect class="cls-2" x="90.25" y="9" width="9" height="9"/><rect class="cls-2" x="117.25" width="9" height="9"/><rect class="cls-2" x="108.25" y="9" width="9" height="9"/><rect class="cls-2" x="135.25" width="9" height="9"/><rect class="cls-2" x="126.25" y="9" width="9" height="9"/><rect class="cls-2" x="153.25" width="9" height="9"/><rect class="cls-2" x="144.25" y="9" width="9" height="9"/><rect class="cls-2" x="171.25" width="9" height="9"/><rect class="cls-2" x="162.25" y="9" width="9" height="9"/><rect class="cls-2" x="189.25" width="9" height="9"/><rect class="cls-2" x="180.25" y="9" width="9" height="9"/><rect class="cls-2" x="207.25" width="9" height="9"/><rect class="cls-2" x="198.25" y="9" width="9" height="9"/><rect class="cls-2" x="225.25" width="9" height="9"/><rect class="cls-2" x="216.25" y="9" width="9" height="9"/><rect class="cls-2" x="243.25" width="9" height="9"/><rect class="cls-2" x="234.25" y="9" width="9" height="9"/><rect class="cls-2" x="261.25" width="9" height="9"/><rect class="cls-2" x="252.25" y="9" width="9" height="9"/><rect class="cls-2" x="279.25" width="9" height="9"/><rect class="cls-2" x="270.25" y="9" width="9" height="9"/><rect class="cls-2" x="297.25" width="9" height="9"/><rect class="cls-2" x="288.25" y="9" width="9" height="9"/><rect class="cls-2" x="315.25" width="9" height="9"/><rect class="cls-2" x="306.25" y="9" width="9" height="9"/><rect class="cls-2" x="333.25" width="9" height="9"/><rect class="cls-2" x="324.25" y="9" width="9" height="9"/><rect class="cls-2" x="351.25" width="9" height="9"/><rect class="cls-2" x="342.25" y="9" width="9" height="9"/><rect class="cls-2" x="369.25" width="9" height="9"/><rect class="cls-2" x="360.25" y="9" width="9" height="9"/><rect class="cls-2" x="387.25" width="9" height="9"/><rect class="cls-2" x="378.25" y="9" width="9" height="9"/><rect class="cls-2" x="405.25" width="9" height="9"/><rect class="cls-2" x="396.25" y="9" width="9" height="9"/><rect class="cls-2" x="423.25" width="9" height="9"/><rect class="cls-2" x="414.25" y="9" width="9" height="9"/><rect class="cls-2" x="9.25" y="18" width="9" height="9"/><rect class="cls-2" x=".25" y="27" width="9" height="9"/><rect class="cls-2" x="27.25" y="18" width="9" height="9"/><rect class="cls-2" x="18.25" y="27" width="9" height="9"/><rect class="cls-2" x="45.25" y="18" width="9" height="9"/><rect class="cls-2" x="36.25" y="27" width="9" height="9"/><rect class="cls-2" x="63.25" y="18" width="9" height="9"/><rect class="cls-2" x="54.25" y="27" width="9" height="9"/><rect class="cls-2" x="81.25" y="18" width="9" height="9"/><rect class="cls-2" x="72.25" y="27" width="9" height="9"/><rect class="cls-2" x="99.25" y="18" width="9" height="9"/><rect class="cls-2" x="90.25" y="27" width="9" height="9"/><rect class="cls-2" x="117.25" y="18" width="9" height="9"/><rect class="cls-2" x="108.25" y="27" width="9" height="9"/><rect class="cls-2" x="135.25" y="18" width="9" height="9"/><rect class="cls-2" x="126.25" y="27" width="9" height="9"/><rect class="cls-2" x="153.25" y="18" width="9" height="9"/><rect class="cls-2" x="144.25" y="27" width="9" height="9"/><rect class="cls-2" x="171.25" y="18" width="9" height="9"/><rect class="cls-2" x="162.25" y="27" width="9" height="9"/><rect class="cls-2" x="189.25" y="18" width="9" height="9"/><rect class="cls-2" x="180.25" y="27" width="9" height="9"/><rect class="cls-2" x="207.25" y="18" width="9" height="9"/><rect class="cls-2" x="198.25" y="27" width="9" height="9"/><rect class="cls-2" x="225.25" y="18" width="9" height="9"/><rect class="cls-2" x="216.25" y="27" width="9" height="9"/><rect class="cls-2" x="243.25" y="18" width="9" height="9"/><rect class="cls-2" x="234.25" y="27" width="9" height="9"/><rect class="cls-2" x="261.25" y="18" width="9" height="9"/><rect class="cls-2" x="252.25" y="27" width="9" height="9"/><rect class="cls-2" x="279.25" y="18" width="9" height="9"/><rect class="cls-2" x="270.25" y="27" width="9" height="9"/><rect class="cls-2" x="297.25" y="18" width="9" height="9"/><rect class="cls-2" x="288.25" y="27" width="9" height="9"/><rect class="cls-2" x="315.25" y="18" width="9" height="9"/><rect class="cls-2" x="306.25" y="27" width="9" height="9"/><rect class="cls-2" x="333.25" y="18" width="9" height="9"/><rect class="cls-2" x="324.25" y="27" width="9" height="9"/><rect class="cls-2" x="351.25" y="18" width="9" height="9"/><rect class="cls-2" x="342.25" y="27" width="9" height="9"/><rect class="cls-2" x="369.25" y="18" width="9" height="9"/><rect class="cls-2" x="360.25" y="27" width="9" height="9"/><rect class="cls-2" x="387.25" y="18" width="9" height="9"/><rect class="cls-2" x="378.25" y="27" width="9" height="9"/><rect class="cls-2" x="405.25" y="18" width="9" height="9"/><rect class="cls-2" x="396.25" y="27" width="9" height="9"/><rect class="cls-2" x="423.25" y="18" width="9" height="9"/><rect class="cls-2" x="414.25" y="27" width="9" height="9"/><rect class="cls-2" x="9.25" y="36" width="9" height="9"/><rect class="cls-2" x=".25" y="45" width="9" height="9"/><rect class="cls-2" x="27.25" y="36" width="9" height="9"/><rect class="cls-2" x="18.25" y="45" width="9" height="9"/><rect class="cls-2" x="45.25" y="36" width="9" height="9"/><rect class="cls-2" x="36.25" y="45" width="9" height="9"/><rect class="cls-2" x="63.25" y="36" width="9" height="9"/><rect class="cls-2" x="54.25" y="45" width="9" height="9"/><rect class="cls-2" x="81.25" y="36" width="9" height="9"/><rect class="cls-2" x="72.25" y="45" width="9" height="9"/><rect class="cls-2" x="99.25" y="36" width="9" height="9"/><rect class="cls-2" x="90.25" y="45" width="9" height="9"/><rect class="cls-2" x="117.25" y="36" width="9" height="9"/><rect class="cls-2" x="108.25" y="45" width="9" height="9"/><rect class="cls-2" x="135.25" y="36" width="9" height="9"/><rect class="cls-2" x="126.25" y="45" width="9" height="9"/><rect class="cls-2" x="153.25" y="36" width="9" height="9"/><rect class="cls-2" x="144.25" y="45" width="9" height="9"/><rect class="cls-2" x="171.25" y="36" width="9" height="9"/><rect class="cls-2" x="162.25" y="45" width="9" height="9"/><rect class="cls-2" x="189.25" y="36" width="9" height="9"/><rect class="cls-2" x="180.25" y="45" width="9" height="9"/><rect class="cls-2" x="207.25" y="36" width="9" height="9"/><rect class="cls-2" x="198.25" y="45" width="9" height="9"/><rect class="cls-2" x="225.25" y="36" width="9" height="9"/><rect class="cls-2" x="216.25" y="45" width="9" height="9"/><rect class="cls-2" x="243.25" y="36" width="9" height="9"/><rect class="cls-2" x="234.25" y="45" width="9" height="9"/><rect class="cls-2" x="261.25" y="36" width="9" height="9"/><rect class="cls-2" x="252.25" y="45" width="9" height="9"/><rect class="cls-2" x="279.25" y="36" width="9" height="9"/><rect class="cls-2" x="270.25" y="45" width="9" height="9"/><rect class="cls-2" x="297.25" y="36" width="9" height="9"/><rect class="cls-2" x="288.25" y="45" width="9" height="9"/><rect class="cls-2" x="315.25" y="36" width="9" height="9"/><rect class="cls-2" x="306.25" y="45" width="9" height="9"/><rect class="cls-2" x="333.25" y="36" width="9" height="9"/><rect class="cls-2" x="324.25" y="45" width="9" height="9"/><rect class="cls-2" x="351.25" y="36" width="9" height="9"/><rect class="cls-2" x="342.25" y="45" width="9" height="9"/><rect class="cls-2" x="369.25" y="36" width="9" height="9"/><rect class="cls-2" x="360.25" y="45" width="9" height="9"/><rect class="cls-2" x="387.25" y="36" width="9" height="9"/><rect class="cls-2" x="378.25" y="45" width="9" height="9"/><rect class="cls-2" x="405.25" y="36" width="9" height="9"/><rect class="cls-2" x="396.25" y="45" width="9" height="9"/><rect class="cls-2" x="423.25" y="36" width="9" height="9"/><rect class="cls-2" x="414.25" y="45" width="9" height="9"/><rect class="cls-2" x="9.25" y="54" width="9" height="9"/><rect class="cls-2" x=".25" y="63" width="9" height="9"/><rect class="cls-2" x="27.25" y="54" width="9" height="9"/><rect class="cls-2" x="18.25" y="63" width="9" height="9"/><rect class="cls-2" x="45.25" y="54" width="9" height="9"/><rect class="cls-2" x="36.25" y="63" width="9" height="9"/><rect class="cls-2" x="63.25" y="54" width="9" height="9"/><rect class="cls-2" x="54.25" y="63" width="9" height="9"/><rect class="cls-2" x="81.25" y="54" width="9" height="9"/><rect class="cls-2" x="72.25" y="63" width="9" height="9"/><rect class="cls-2" x="99.25" y="54" width="9" height="9"/><rect class="cls-2" x="90.25" y="63" width="9" height="9"/><rect class="cls-2" x="117.25" y="54" width="9" height="9"/><rect class="cls-2" x="108.25" y="63" width="9" height="9"/><rect class="cls-2" x="135.25" y="54" width="9" height="9"/><rect class="cls-2" x="126.25" y="63" width="9" height="9"/><rect class="cls-2" x="153.25" y="54" width="9" height="9"/><rect class="cls-2" x="144.25" y="63" width="9" height="9"/><rect class="cls-2" x="171.25" y="54" width="9" height="9"/><rect class="cls-2" x="162.25" y="63" width="9" height="9"/><rect class="cls-2" x="189.25" y="54" width="9" height="9"/><rect class="cls-2" x="180.25" y="63" width="9" height="9"/><rect class="cls-2" x="207.25" y="54" width="9" height="9"/><rect class="cls-2" x="198.25" y="63" width="9" height="9"/><rect class="cls-2" x="225.25" y="54" width="9" height="9"/><rect class="cls-2" x="216.25" y="63" width="9" height="9"/><rect class="cls-2" x="243.25" y="54" width="9" height="9"/><rect class="cls-2" x="234.25" y="63" width="9" height="9"/><rect class="cls-2" x="261.25" y="54" width="9" height="9"/><rect class="cls-2" x="252.25" y="63" width="9" height="9"/><rect class="cls-2" x="279.25" y="54" width="9" height="9"/><rect class="cls-2" x="270.25" y="63" width="9" height="9"/><rect class="cls-2" x="297.25" y="54" width="9" height="9"/><rect class="cls-2" x="288.25" y="63" width="9" height="9"/><rect class="cls-2" x="315.25" y="54" width="9" height="9"/><rect class="cls-2" x="306.25" y="63" width="9" height="9"/><rect class="cls-2" x="333.25" y="54" width="9" height="9"/><rect class="cls-2" x="324.25" y="63" width="9" height="9"/><rect class="cls-2" x="351.25" y="54" width="9" height="9"/><rect class="cls-2" x="342.25" y="63" width="9" height="9"/><rect class="cls-2" x="369.25" y="54" width="9" height="9"/><rect class="cls-2" x="360.25" y="63" width="9" height="9"/><rect class="cls-2" x="387.25" y="54" width="9" height="9"/><rect class="cls-2" x="378.25" y="63" width="9" height="9"/><rect class="cls-2" x="405.25" y="54" width="9" height="9"/><rect class="cls-2" x="396.25" y="63" width="9" height="9"/><rect class="cls-2" x="423.25" y="54" width="9" height="9"/><rect class="cls-2" x="414.25" y="63" width="9" height="9"/><line class="cls-3" x1="9.25" y1="72" x2="9.25" y2="144"/><line class="cls-3" x1=".25" y1="72" x2=".25" y2="144"/><line class="cls-3" x1="18.25" y1="72" x2="18.25" y2="144"/><line class="cls-3" x1="27.25" y1="72" x2="27.25" y2="144"/><line class="cls-3" x1="36.25" y1="72" x2="36.25" y2="144"/><line class="cls-3" x1="45.25" y1="72" x2="45.25" y2="144"/><line class="cls-3" x1="54.25" y1="72" x2="54.25" y2="144"/><line class="cls-3" x1="63.25" y1="72" x2="63.25" y2="144"/><line class="cls-3" x1="72.25" y1="72" x2="72.25" y2="144"/><line class="cls-3" x1="81.25" y1="72" x2="81.25" y2="144"/><line class="cls-3" x1="90.25" y1="72" x2="90.25" y2="144"/><line class="cls-3" x1="99.25" y1="72" x2="99.25" y2="144"/><line class="cls-3" x1="108.25" y1="72" x2="108.25" y2="144"/><line class="cls-3" x1="117.25" y1="72" x2="117.25" y2="144"/><line class="cls-3" x1="126.25" y1="72" x2="126.25" y2="144"/><line class="cls-3" x1="135.25" y1="72" x2="135.25" y2="144"/><line class="cls-3" x1="144.25" y1="72" x2="144.25" y2="144"/><line class="cls-3" x1="153.25" y1="72" x2="153.25" y2="144"/><line class="cls-3" x1="162.25" y1="72" x2="162.25" y2="144"/><line class="cls-3" x1="171.25" y1="72" x2="171.25" y2="144"/><line class="cls-3" x1="180.25" y1="72" x2="180.25" y2="144"/><line class="cls-3" x1="189.25" y1="72" x2="189.25" y2="144"/><line class="cls-3" x1="198.25" y1="72" x2="198.25" y2="144"/><line class="cls-3" x1="207.25" y1="72" x2="207.25" y2="144"/><line class="cls-3" x1="216.25" y1="72" x2="216.25" y2="144"/><line class="cls-3" x1="225.25" y1="72" x2="225.25" y2="144"/><line class="cls-3" x1="234.25" y1="72" x2="234.25" y2="144"/><line class="cls-3" x1="243.25" y1="72" x2="243.25" y2="144"/><line class="cls-3" x1="252.25" y1="72" x2="252.25" y2="144"/><line class="cls-3" x1="261.25" y1="72" x2="261.25" y2="144"/><line class="cls-3" x1="270.25" y1="72" x2="270.25" y2="144"/><line class="cls-3" x1="279.25" y1="72" x2="279.25" y2="144"/><line class="cls-3" x1="288.25" y1="72" x2="288.25" y2="144"/><line class="cls-3" x1="297.25" y1="72" x2="297.25" y2="144"/><line class="cls-3" x1="306.25" y1="72" x2="306.25" y2="144"/><line class="cls-3" x1="315.25" y1="72" x2="315.25" y2="144"/><line class="cls-3" x1="324.25" y1="72" x2="324.25" y2="144"/><line class="cls-3" x1="333.25" y1="72" x2="333.25" y2="144"/><line class="cls-3" x1="342.25" y1="72" x2="342.25" y2="144"/><line class="cls-3" x1="351.25" y1="72" x2="351.25" y2="144"/><line class="cls-3" x1="360.25" y1="72" x2="360.25" y2="144"/><line class="cls-3" x1="369.25" y1="72" x2="369.25" y2="144"/><line class="cls-3" x1="378.25" y1="72" x2="378.25" y2="144"/><line class="cls-3" x1="387.25" y1="72" x2="387.25" y2="144"/><line class="cls-3" x1="396.25" y1="72" x2="396.25" y2="144"/><line class="cls-3" x1="405.25" y1="72" x2="405.25" y2="144"/><line class="cls-3" x1="414.25" y1="72" x2="414.25" y2="144"/><line class="cls-3" x1="423.25" y1="72" x2="423.25" y2="144"/><line class="cls-3" x1="432.25" y1="72" x2="432.25" y2="144"/><line class="cls-3" x1=".25" y1="81" x2="432.25" y2="81"/><line class="cls-3" x1="432.25" y1="90" x2=".25" y2="90"/><line class="cls-3" x1=".25" y1="99" x2="432.25" y2="99"/><line class="cls-3" x1=".25" y1="72" x2="432.25" y2="72"/><line class="cls-3" x1=".25" y1="108" x2="432.25" y2="108"/><line class="cls-3" x1="432.25" y1="117" x2=".25" y2="117"/><line class="cls-3" x1=".25" y1="126" x2="432.25" y2="126"/><line class="cls-3" x1="432.25" y1="135" x2=".25" y2="135"/><line class="cls-3" x1=".25" y1="144" x2="432.25" y2="144"/></g></svg>