<?xml version="1.0" encoding="UTF-8"?><svg xmlns="http://www.w3.org/2000/svg" viewBox="0 0 289.98 289.98"><defs><style>.d{fill:#fff;}.e{fill:#bb4430;}</style></defs><g id="a"/><g id="b"><g id="c"><rect class="e" x="0" y="0" width="289.98" height="289.98" rx="69.16" ry="69.16"/><path class="d" d="M246.29,159.47c0,36.45-45.37,66-101.33,66s-101.33-29.55-101.33-66c0-27.58,25.97-51.2,62.86-61.07l8.73,22.94c-21.43,7-36.14,21.45-36.14,38.12,0,23.54,29.31,42.63,65.47,42.63h.03c36.14,0,65.44-19.09,65.44-42.63,0-16.67-14.7-31.11-36.12-38.12l8.79-23.14c12.8,3.35,24.31,8.35,33.91,14.6,18.34,11.94,29.68,28.44,29.69,46.66Z"/><path class="d" d="M178.75,75.02c-.02,1.14-.23,2.26-.61,3.32l-6.87,18.06-6.16,16.21-20.55,54.08-20.55-54.08-6.11-16.07-6.91-18.19c-1.94-5.35,.82-11.27,6.17-13.21,1.08-.39,2.2-.6,3.33-.62l48.13,.03c5.69,.09,10.23,4.78,10.14,10.48Z"/></g></g></svg>