<?xml version="1.0" encoding="UTF-8"?><svg id="Ebene_2" xmlns="http://www.w3.org/2000/svg" viewBox="0 0 144 160.5"><defs><style>.cls-1{stroke-width:0px;}.cls-2{fill:none;stroke:#000;stroke-miterlimit:10;stroke-width:15px;}</style></defs><g id="Ebene_1-2"><path class="cls-1" d="m127.05,52.5H16.95c-9.36,0-16.95,7.59-16.95,16.95v74.1c0,9.36,7.59,16.95,16.95,16.95h110.1c9.36,0,16.95-7.59,16.95-16.95v-74.1c0-9.36-7.59-16.95-16.95-16.95Zm-46.05,61.12v23.13c0,3.18-2.57,5.75-5.75,5.75h-6.5c-3.18,0-5.75-2.57-5.75-5.75v-23.13c-7.95-3.46-13.5-11.39-13.5-20.62,0-12.43,10.07-22.5,22.5-22.5s22.5,10.07,22.5,22.5c0,9.23-5.55,17.16-13.5,20.62Z"/><path class="cls-2" d="m27,52.5s0-45,45-45,45,45,45,45"/></g></svg>