<?xml version="1.0" encoding="UTF-8"?><svg xmlns="http://www.w3.org/2000/svg" viewBox="0 0 188.76 149.91"><g id="a"/><g id="b"><g id="c"><path d="M188.76,88.44c0,33.95-42.26,61.47-94.38,61.47S0,122.39,0,88.44C0,62.75,24.19,40.75,58.55,31.56l8.13,21.37c-19.96,6.52-33.66,19.98-33.66,35.51,0,21.93,27.3,39.71,60.98,39.71h.03c33.66,0,60.95-17.78,60.95-39.71,0-15.53-13.69-28.98-33.64-35.51l8.19-21.55c11.92,3.12,22.64,7.78,31.58,13.6,17.08,11.12,27.64,26.49,27.65,43.46Z"/><path d="M125.85,9.79c-.02,1.06-.21,2.1-.57,3.1l-6.4,16.82-5.74,15.1-19.14,50.37-19.14-50.37-5.69-14.97-6.44-16.94c-1.81-4.99,.76-10.49,5.74-12.3,1-.36,2.05-.56,3.1-.58l44.83,.03c5.3,.08,9.53,4.46,9.44,9.76Z"/></g></g></svg>