<?xml version="1.0" encoding="UTF-8"?><svg id="Ebene_2" xmlns="http://www.w3.org/2000/svg" viewBox="0 0 115.63 131"><defs><style>.cls-1{stroke-width:0px;}.cls-2{fill:none;stroke:#000;stroke-miterlimit:10;stroke-width:8px;}</style></defs><g id="Ebene_1-2"><line class="cls-2" x1="88.63" y1="27.28" x2="88.63" y2="81.28"/><line class="cls-2" x1="61.63" y1="54.28" x2="115.63" y2="54.28"/><path class="cls-1" d="m24.41,131v-16.12c-9.25-.16-18.83-3.03-24.41-7.02l3.83-10.69c5.74,3.83,14.04,6.86,22.98,6.86,11.33,0,18.99-6.54,18.99-15.64s-6.22-14.2-18.03-18.99C11.49,63.03,1.44,55.69,1.44,41.8s9.41-23.3,24.09-25.69V0h9.89v15.48c9.57.32,16.12,2.87,20.74,5.58l-3.99,10.53c-3.35-1.91-9.89-5.42-20.1-5.42-12.29,0-16.91,7.34-16.91,13.72,0,8.3,5.9,12.45,19.79,18.19,16.43,6.7,24.73,15,24.73,29.2,0,12.61-8.78,24.41-25.21,27.13v16.59h-10.05Z"/></g></svg>