<?xml version="1.0" encoding="UTF-8"?><svg id="Ebene_2" xmlns="http://www.w3.org/2000/svg" viewBox="0 0 115.38 135"><defs><style>.cls-1{stroke-width:0px;}</style></defs><g id="Ebene_1-2"><path class="cls-1" d="m74.38.79c4.17.36,8.44,1.8,12.27,3.6,10.21,4.8,18.5,13.92,15.34,29.25-.39,1.91-.74,3.83-1.23,5.72-5.21,20.35-18.52,31.48-39.59,32.88-6.03.4-12.09.31-18.14.39-7.21.08-11.28,3.51-12.46,10.55-1.92,11.45-3.91,22.89-5.75,34.35-.31,1.94-1,2.62-2.97,2.57-5.46-.12-10.93-.03-16.4-.04-4.8-.01-5.97-1.3-5.24-6.05,2.78-18.13,5.62-36.25,8.43-54.38,2.64-16.97,5.27-33.94,7.91-50.91.12-.77.24-1.54.37-2.31C17.78,1.49,19.55,0,24.64,0"/><path class="cls-1" d="m31.18,135c2.49-15.5,4.87-30.53,7.34-45.55,1.51-9.19.1-7.66,9.5-8.04,7.88-.31,15.91-.32,23.56-1.95,20.08-4.28,32.12-17.35,37.55-36.86.35-1.27.69-2.55,1.15-4.25,3.9,4.66,5.11,9.74,5.1,15.07-.01,9.44-2.16,18.42-7.19,26.5-6.81,10.94-17.33,15.57-29.67,16.83-3.1.32-6.24.31-9.36.39-4.05.11-5.73,1.4-6.38,5.33-1.41,8.47-2.74,16.96-4.06,25.44-.93,5.97-2.17,7.07-8.18,7.08-6.33,0-12.66,0-19.37,0Z"/></g></svg>