<?xml version="1.0" encoding="UTF-8" standalone="no"?><!DOCTYPE svg PUBLIC "-//W3C//DTD SVG 1.1//EN"
        "http://www.w3.org/Graphics/SVG/1.1/DTD/svg11.dtd">
<svg width="100%" height="100%" viewBox="0 0 34 36" version="1.1" xmlns="http://www.w3.org/2000/svg"
     xmlns:xlink="http://www.w3.org/1999/xlink" xml:space="preserve" xmlns:serif="http://www.serif.com/"
     style="fill-rule:evenodd;clip-rule:evenodd;stroke-linejoin:round;stroke-miterlimit:2;"><g id="people"><path d="M14.014,15.307c-0.996,0.445 -2.099,0.693 -3.259,0.693c-4.416,0 -8,-3.585 -8,-8c-0,-4.415 3.584,-8 8,-8c2.83,0 5.318,1.473 6.741,3.693c-2.793,1.248 -4.741,4.052 -4.741,7.307c-0,1.585 0.462,3.064 1.259,4.307Z"/><path
        d="M16.014,16.307c-0.797,-1.243 -1.259,-2.722 -1.259,-4.307c-0,-3.255 1.948,-6.059 4.741,-7.307c0.995,-0.445 2.098,-0.693 3.259,-0.693c4.415,0 8,3.585 8,8c-0,4.415 -3.585,8 -8,8c-2.83,0 -5.319,-1.473 -6.741,-3.693Z"/><path
        d="M10.088,32l-10,0l0,-4.806c0,-4.705 3.822,-8.527 8.527,-8.527l4.279,-0c2.597,-0 4.926,1.164 6.491,3l-0.77,-0c-4.705,-0 -8.527,3.822 -8.527,8.527l0,1.806Z"/><path
        d="M12.088,36l0,-4.806c0,-4.705 3.822,-8.527 8.527,-8.527l4.279,-0c4.705,-0 8.527,3.822 8.527,8.527l0,4.806l-21.333,0Z"/></g></svg>