<?xml version="1.0" encoding="UTF-8"?><svg id="Ebene_2" xmlns="http://www.w3.org/2000/svg" viewBox="0 0 144 144"><defs><style>.cls-1{stroke-width:0px;}</style></defs><g id="Ebene_1-2"><path class="cls-1" d="m72,26.53c-25.11,0-45.47,20.36-45.47,45.47s20.36,45.47,45.47,45.47,45.47-20.36,45.47-45.47-20.36-45.47-45.47-45.47Zm0,68.21c-12.56,0-22.74-10.18-22.74-22.74s10.18-22.74,22.74-22.74,22.74,10.18,22.74,22.74-10.18,22.74-22.74,22.74Z"/><g id="_Radiale_Wiederholung_"><path class="cls-1" d="m62.46,107.15h19.07c4.91,0,8.89,3.98,8.89,8.89v27.96h-36.85v-27.96c0-4.91,3.98-8.89,8.89-8.89Z" transform="translate(144 251.15) rotate(180)"/></g><g id="_Radiale_Wiederholung_-2"><path class="cls-1" d="m24.58,91.46h19.07c4.91,0,8.89,3.98,8.89,8.89v27.96H15.69v-27.96c0-4.91,3.98-8.89,8.89-8.89Z" transform="translate(-19.46 211.71) rotate(-135)"/></g><g id="_Radiale_Wiederholung_-3"><path class="cls-1" d="m8.89,53.57h19.07c4.91,0,8.89,3.98,8.89,8.89v27.96H0v-27.96C0,57.56,3.98,53.57,8.89,53.57Z" transform="translate(-53.57 90.43) rotate(-90)"/></g><g id="_Radiale_Wiederholung_-4"><path class="cls-1" d="m24.58,15.69h19.07c4.91,0,8.89,3.98,8.89,8.89v27.96H15.69v-27.96c0-4.91,3.98-8.89,8.89-8.89Z" transform="translate(-14.13 34.12) rotate(-45)"/></g><g id="_Radiale_Wiederholung_-5"><path class="cls-1" d="m62.46,0h19.07c4.91,0,8.89,3.98,8.89,8.89v27.96h-36.85V8.89c0-4.91,3.98-8.89,8.89-8.89Z"/></g><g id="_Radiale_Wiederholung_-6"><path class="cls-1" d="m100.35,15.69h19.07c4.91,0,8.89,3.98,8.89,8.89v27.96h-36.85v-27.96c0-4.91,3.98-8.89,8.89-8.89Z" transform="translate(56.31 -67.71) rotate(45)"/></g><g id="_Radiale_Wiederholung_-7"><path class="cls-1" d="m116.04,53.57h19.07c4.91,0,8.89,3.98,8.89,8.89v27.96h-36.85v-27.96c0-4.91,3.98-8.89,8.89-8.89Z" transform="translate(197.57 -53.57) rotate(90)"/></g><g id="_Radiale_Wiederholung_-8"><path class="cls-1" d="m100.35,91.46h19.07c4.91,0,8.89,3.98,8.89,8.89v27.96h-36.85v-27.96c0-4.91,3.98-8.89,8.89-8.89Z" transform="translate(265.28 109.88) rotate(135)"/></g></g></svg>