<?xml version="1.0" encoding="UTF-8" standalone="no"?><!DOCTYPE svg PUBLIC "-//W3C//DTD SVG 1.1//EN" "http://www.w3.org/Graphics/SVG/1.1/DTD/svg11.dtd"><svg width="100%" height="100%" viewBox="0 0 44 40" version="1.1" xmlns="http://www.w3.org/2000/svg" xmlns:xlink="http://www.w3.org/1999/xlink" xml:space="preserve" xmlns:serif="http://www.serif.com/" style="fill-rule:evenodd;clip-rule:evenodd;stroke-linecap:round;stroke-linejoin:round;stroke-miterlimit:1.5;"><g id="shuffle_off"><path d="M40.505,8.011l-8.041,5.511l0,-11.022l8.041,5.511Z" style="stroke:#000;stroke-width:5px;"/><path d="M40.505,31.151l-8.041,5.511l0,-11.022l8.041,5.511Z" style="stroke:#000;stroke-width:5px;"/><path d="M32.465,28.651c1.38,0 2.5,1.12 2.5,2.5c-0,1.38 -1.12,2.5 -2.5,2.5l-3.746,0c-1.38,0 -2.5,-1.12 -2.5,-2.5c0,-1.38 1.12,-2.5 2.5,-2.5l3.746,-0Zm-11.237,0c1.38,-0 2.5,1.12 2.5,2.5c0,1.38 -1.12,2.5 -2.5,2.5l-7.491,0c-1.38,0 -2.5,-1.12 -2.5,-2.5c0,-1.38 1.12,-2.5 2.5,-2.5l7.491,-0Zm-14.982,0c1.38,0 2.5,1.12 2.5,2.5c0,1.38 -1.12,2.5 -2.5,2.5l-3.746,0c-1.38,0 -2.5,-1.12 -2.5,-2.5c-0,-1.38 1.12,-2.5 2.5,-2.5l3.746,0Z"/><path d="M32.465,8.011l-29.965,0" style="fill:none;stroke:#000;stroke-width:5px;"/></g></svg>