<?xml version="1.0" encoding="UTF-8" standalone="no"?><!DOCTYPE svg PUBLIC "-//W3C//DTD SVG 1.1//EN"
        "http://www.w3.org/Graphics/SVG/1.1/DTD/svg11.dtd">
<svg width="100%" height="100%" viewBox="0 0 29 32" version="1.1" xmlns="http://www.w3.org/2000/svg"
     xmlns:xlink="http://www.w3.org/1999/xlink" xml:space="preserve" xmlns:serif="http://www.serif.com/"
     style="fill-rule:evenodd;clip-rule:evenodd;stroke-linejoin:round;stroke-miterlimit:2;"><g id="stars"><path d="M8,8c0,0 0.038,12 -7.5,12c7.541,0 7.5,12 7.5,12c0,0 0.01,-12 7.5,-12c-7.552,0 -7.5,-12 -7.5,-12Z"/><path
        d="M22.265,4.057c-0,0 0.031,10 -6.25,10c6.284,0 6.25,10 6.25,10c-0,0 0.008,-10 6.25,-10c-6.294,0 -6.25,-10 -6.25,-10Z"/><path
        d="M13.098,0.334c-0,0 0.02,6.5 -4.063,6.5c4.085,0 4.063,6.5 4.063,6.5c-0,0 0.005,-6.5 4.062,-6.5c-4.09,0 -4.062,-6.5 -4.062,-6.5Z"/></g></svg>