<?xml version="1.0" encoding="UTF-8"?><svg id="Ebene_2" xmlns="http://www.w3.org/2000/svg" viewBox="0 0 142.88 83.57"><g id="Ebene_1-2"><g id="Layer_2"><g id="Layer_1-2"><rect y="34.35" width="72" height="14.87" rx="5.47" ry="5.47"/><g><rect x="105.27" y="35.38" width="7.33" height="35.49" rx="2.69" ry="2.69" transform="translate(-5.66 92.59) rotate(-45)"/><rect x="111.11" y="49.46" width="35.49" height="7.33" rx="2.69" ry="2.69" transform="translate(.18 106.67) rotate(-45)"/><path d="m126.33,9.71v.06c0-3.02-2.45-5.47-5.47-5.47h-29.07c-3.02,0-5.47,2.45-5.47,5.47v-.06c0,3.02,2.45,5.47,5.47,5.47h29.07c3.02,0,5.47-2.45,5.47-5.47Z"/><rect x="111.46" y="4.31" width="14.87" height="54" rx="5.47" ry="5.47"/></g><rect width="72" height="14.87" rx="5.47" ry="5.47"/><rect y="68.71" width="72" height="14.87" rx="5.47" ry="5.47"/></g></g></g></svg>