<?xml version="1.0" encoding="UTF-8"?><svg id="Ebene_2" xmlns="http://www.w3.org/2000/svg" viewBox="0 0 168.8 153.26"><defs><style>.cls-1{stroke-width:0px;}</style></defs><g id="Ebene_1-2"><rect class="cls-1" x="97.44" y="32.05" width="15.19" height="73.57" rx="5.58" ry="5.58" transform="translate(-17.91 94.44) rotate(-45)"/><rect class="cls-1" x="26.97" y="61.24" width="73.57" height="15.19" rx="5.58" ry="5.58" transform="translate(-30 65.25) rotate(-45)"/><path class="cls-1" d="m168.8,9.91v45.61c0,5.47-4.44,9.91-9.91,9.91h0c-5.47,0-9.91-4.44-9.91-9.91v-27.8c0-5.47-4.44-9.91-9.91-9.91H29.73c-5.47,0-9.91,4.44-9.91,9.91v27.8c0,5.47-4.44,9.91-9.91,9.91h0c-5.47,0-9.91-4.44-9.91-9.91V9.91C0,4.44,4.44,0,9.91,0h148.98c5.47,0,9.91,4.44,9.91,9.91Z"/><path class="cls-1" d="m84.4,153.26h0c-4.92,0-8.91-4.67-8.91-10.43V63.19c0-5.76,3.99-10.43,8.91-10.43h0c4.92,0,8.91,4.67,8.91,10.43v79.64c0,5.76-3.99,10.43-8.91,10.43Z"/></g></svg>