<?xml version="1.0" encoding="UTF-8"?><svg id="Ebene_2" xmlns="http://www.w3.org/2000/svg" viewBox="0 0 133.45 133.45"><defs><style>.cls-1{fill:#fff;}.cls-2{fill:#b2115f;}.cls-3{fill:#6b8fc0;}</style></defs><g id="Layer_1"><path d="m122.33,0H11.12L0,11.12v111.21l11.12,11.12h111.21l11.12-11.12V11.12L122.33,0Z"/><path class="cls-3" d="m122.33,0H11.12L0,11.12v111.21l11.12,11.12h111.21l11.12-11.12V11.12L122.33,0Z"/><path class="cls-2" d="m102.82,71.94c0,13.14-16.16,23.8-36.1,23.8s-36.1-10.65-36.1-23.8c0-9.95,9.25-18.46,22.4-22.02l3.11,8.27c-7.64,2.52-12.87,7.73-12.87,13.75,0,8.49,10.44,15.38,23.32,15.38h.01c12.87,0,23.31-6.88,23.31-15.38,0-6.01-5.23-11.22-12.87-13.75l3.13-8.34c4.56,1.21,8.66,3.01,12.08,5.27,6.53,4.3,10.57,10.26,10.58,16.83h0Z"/><path class="cls-1" d="m78.76,41.49c0,.41-.08.81-.22,1.2l-2.45,6.51-2.19,5.85-7.32,19.5-7.32-19.5-2.18-5.8-2.46-6.56c-.69-1.93.29-4.06,2.2-4.76.38-.14.78-.22,1.19-.22h17.15c2.03.04,3.64,1.74,3.61,3.79h0Z"/></g></svg>