<?xml version="1.0" encoding="UTF-8"?><svg id="Ebene_2" xmlns="http://www.w3.org/2000/svg" viewBox="0 0 216 216"><defs><style>.cls-1{fill:#fff;}.cls-2{fill:#5078a9;}</style></defs><g id="Layer_1"><path d="m198,0H18L0,18v180l18,18h180l18-18V18L198,0Z"/><path class="cls-2" d="m198,0H18L0,18v180l18,18h180l18-18V18L198,0Z"/><path class="cls-1" d="m166.42,116.45c0,21.28-26.16,38.52-58.43,38.52s-58.43-17.24-58.43-38.52c0-16.1,14.97-29.89,36.25-35.64l5.03,13.39c-12.36,4.08-20.84,12.52-20.84,22.25,0,13.74,16.9,24.89,37.75,24.89h.02c20.84,0,37.73-11.14,37.73-24.89,0-9.73-8.47-18.16-20.83-22.25l5.07-13.5c7.38,1.96,14.02,4.88,19.55,8.52,10.58,6.97,17.11,16.6,17.12,27.24h0Z"/><path class="cls-1" d="m127.48,67.16c-.01.66-.13,1.32-.35,1.94l-3.96,10.54-3.55,9.46-11.85,31.57-11.85-31.57-3.52-9.38-3.98-10.62c-1.12-3.12.47-6.57,3.56-7.71.62-.23,1.27-.35,1.92-.36h27.75c3.28.07,5.9,2.81,5.84,6.13h-.01Z"/></g></svg>