<?xml version="1.0" encoding="UTF-8"?><svg id="Ebene_2" xmlns="http://www.w3.org/2000/svg" viewBox="0 0 216 216"><defs><style>.cls-1{fill:#fff;}.cls-2{fill:#b2115f;}.cls-3{fill:none;stroke:#fff;stroke-miterlimit:10;stroke-width:12px;}</style></defs><g id="Layer_1"><path d="m198,0H18L0,18v180l18,18h180l18-18V18L198,0Z"/><path class="cls-2" d="m198,0H18L0,18v180l18,18h180l18-18V18L198,0Z"/><path d="m133.78,145.76l-2.14-2.15c-1.64-1.65-4.3-1.65-5.94,0l-33.17,33.38c-1.64,1.65-1.64,4.33,0,5.98l2.14,2.15c1.64,1.65,4.3,1.65,5.94,0l33.17-33.38c1.64-1.65,1.64-4.33,0-5.98Z"/><path d="m94.68,112.38l-2.14,2.15c-1.64,1.65-1.64,4.33,0,5.98l33.17,33.38c1.64,1.65,4.3,1.65,5.94,0l2.14-2.15c1.64-1.65,1.64-4.33,0-5.98l-33.17-33.38c-1.64-1.65-4.3-1.65-5.94,0Z"/><path d="m81.15,68.76l2.14,2.15c1.64,1.65,4.3,1.65,5.94,0l33.17-33.38c1.64-1.65,1.64-4.33,0-5.98l-2.14-2.15c-1.64-1.65-4.3-1.65-5.94,0l-33.17,33.38c-1.64,1.65-1.64,4.33,0,5.98Z"/><path d="m120.26,102.14l2.14-2.15c1.64-1.65,1.64-4.33,0-5.98l-33.17-33.38c-1.64-1.65-4.3-1.65-5.94,0l-2.14,2.15c-1.64,1.65-1.64,4.33,0,5.98l33.17,33.38c1.64,1.65,4.3,1.65,5.94,0Z"/><path class="cls-1" d="m133.78,145.76l-2.14-2.15c-1.64-1.65-4.3-1.65-5.94,0l-33.17,33.38c-1.64,1.65-1.64,4.33,0,5.98l2.14,2.15c1.64,1.65,4.3,1.65,5.94,0l33.17-33.38c1.64-1.65,1.64-4.33,0-5.98Z"/><path class="cls-1" d="m94.68,112.38l-2.14,2.15c-1.64,1.65-1.64,4.33,0,5.98l33.17,33.38c1.64,1.65,4.3,1.65,5.94,0l2.14-2.15c1.64-1.65,1.64-4.33,0-5.98l-33.17-33.38c-1.64-1.65-4.3-1.65-5.94,0Z"/><path class="cls-1" d="m81.15,68.76l2.14,2.15c1.64,1.65,4.3,1.65,5.94,0l33.17-33.38c1.64-1.65,1.64-4.33,0-5.98l-2.14-2.15c-1.64-1.65-4.3-1.65-5.94,0l-33.17,33.38c-1.64,1.65-1.64,4.33,0,5.98Z"/><path class="cls-1" d="m120.26,102.14l2.14-2.15c1.64-1.65,1.64-4.33,0-5.98l-33.17-33.38c-1.64-1.65-4.3-1.65-5.94,0l-2.14,2.15c-1.64,1.65-1.64,4.33,0,5.98l33.17,33.38c1.64,1.65,4.3,1.65,5.94,0Z"/><ellipse class="cls-3" cx="108" cy="106.52" rx="45.47" ry="45.77"/></g></svg>